<?xml version="1.0" ?><svg height="1024" preserveAspectRatio="xMidYMid meet" width="1024" xmlns="http://www.w3.org/2000/svg"><g><title/><rect fill="none" height="1026" id="canvas_background" width="1026" x="-1" y="-1"/></g><g><title/><g fill="#000000" id="svg_1" transform="translate(0,1024) scale(0.10000000149011612,-0.10000000149011612) "><path d="m4820,9439c-1036,-77 -1981,-503 -2723,-1228c-976,-952 -1444,-2300 -1271,-3654c216,-1693 1410,-3103 3050,-3602c1268,-386 2679,-157 3754,608c1321,941 2008,2502 1804,4100c-216,1693 -1410,3103 -3050,3602c-488,149 -1057,212 -1564,174zm331,-2689c222,-22 333,-57 383,-122c13,-18 34,-62 46,-98c26,-76 27,-163 11,-813c-10,-406 -4,-531 29,-621c39,-103 125,-150 201,-111c69,36 230,213 335,370c243,360 391,639 569,1070c36,85 84,141 134,154c20,6 303,11 651,12l615,2l52,-22c67,-30 93,-69 93,-140c0,-135 -141,-412 -383,-751c-33,-47 -158,-213 -277,-370c-263,-346 -320,-427 -360,-511c-50,-106 -38,-193 41,-296c23,-29 139,-146 258,-260c333,-319 484,-487 607,-671c88,-133 122,-231 108,-315c-7,-46 -53,-101 -105,-128c-62,-31 -157,-37 -680,-44l-495,-7l-80,27c-204,68 -340,181 -649,539c-171,198 -298,295 -386,296c-81,0 -184,-108 -228,-242c-30,-90 -41,-159 -50,-315c-11,-184 -33,-227 -146,-274c-41,-18 -551,-24 -686,-10c-271,30 -522,115 -771,262c-361,212 -582,402 -819,704c-412,526 -693,974 -1034,1650c-132,263 -287,603 -312,684c-25,84 11,153 93,179c28,9 184,14 544,19l505,5l59,-22c93,-36 132,-82 195,-235c54,-129 345,-713 436,-876c93,-165 192,-303 277,-385c105,-103 152,-128 226,-122c63,6 80,20 119,105c95,205 110,898 25,1170c-49,155 -122,214 -324,257c-35,8 -35,20 -3,67c78,112 217,166 482,188c145,12 575,13 694,1z" fill="#45668e" id="svg_2"/></g></g></svg>